Coordinates
version=1
nRows=10
nColumns=40
inDegrees=yes

Units are S.I. units (second, meters, Newtons, ...)
Angles are in degrees.

endheader
time	pelvis_tilt	pelvis_list	pelvis_rotation	pelvis_tx	pelvis_ty	pelvis_tz	hip_flexion_r	hip_adduction_r	hip_rotation_r	knee_angle_r	knee_angle_r_beta	ankle_angle_r	subtalar_angle_r	mtp_angle_r	hip_flexion_l	hip_adduction_l	hip_rotation_l	knee_angle_l	knee_angle_l_beta	ankle_angle_l	subtalar_angle_l	mtp_angle_l	lumbar_extension	lumbar_bending	lumbar_rotation	arm_flex_r	arm_add_r	arm_rot_r	elbow_flex_r	pro_sup_r	wrist_flex_r	wrist_dev_r	arm_flex_l	arm_add_l	arm_rot_l	elbow_flex_l	pro_sup_l	wrist_flex_l	wrist_dev_l
     19.70000000	     -5.66293869	     -6.16366236	      4.22705334	      1.04899685	      0.92057727	      0.48255065	      1.99000107	      4.55030506	    -17.55063833	      9.90827878	      9.90827878	     15.21490662	      3.91478907	     -5.23627069	     30.72168265	     -9.47959499	     -1.15125464	     23.44712036	     23.44712036	      3.79253266	    -12.35458043	      5.53269238	     -9.76447490	      6.15969117	      4.39748431	     27.86245879	    -15.31260798	      0.86990964	     88.32905010	     44.14186842	      0.00000000	      0.00000000	     -8.65315019	     -9.41654547	     -2.84859582	     32.00181668	     46.22885479	      0.00000000	      0.00000000
     19.71371429	     -5.69342205	     -6.22969536	      4.01777221	      1.05026073	      0.91997921	      0.48057034	      1.59705617	      4.47366226	    -17.33307199	     10.00390067	     10.00390067	     15.37030399	      3.98729264	     -5.24446291	     30.25547146	     -9.45329887	     -1.20108295	     23.80613161	     23.80613161	      3.86177921	    -12.64192876	      5.43158057	     -9.58548355	      6.07788084	      4.44691496	     27.96825007	    -15.02474692	      0.93479650	     88.36713026	     44.14344365	      0.00000000	      0.00000000	     -8.52559214	     -9.39854304	     -2.77098684	     31.98672414	     46.21859629	      0.00000000	      0.00000000
     19.72742857	     -5.69802725	     -6.26521421	      3.86760007	      1.05144991	      0.91960626	      0.47831288	      1.22084984	      4.32727220	    -17.17638181	     10.18343724	     10.18343724	     15.55179992	      4.03516034	     -5.21600781	     29.85235080	     -9.35645873	     -1.10114308	     24.20662728	     24.20662728	      4.05942820	    -13.00582069	      5.24577608	     -9.51387732	      5.96509965	      4.39614176	     28.06818223	    -14.74933581	      0.98225998	     88.31696910	     44.14987340	      0.00000000	      0.00000000	     -8.25168384	     -9.40044578	     -2.66240959	     31.98463772	     46.20587001	      0.00000000	      0.00000000
     19.74114286	     -5.84189990	     -6.34159500	      3.76908506	      1.05246684	      0.91946208	      0.47591004	      0.98815145	      4.21829473	    -17.09535770	     10.28590526	     10.28590526	     15.49067931	      4.06629717	     -5.19095740	     29.55863222	     -9.29128291	     -1.02052768	     24.35594765	     24.35594765	      4.22730420	    -13.08546712	      5.16031567	     -9.24402834	      5.91958760	      4.30429823	     28.06817828	    -14.70971377	      0.99093151	     88.31070086	     44.15041446	      0.00000000	      0.00000000	     -8.06061454	     -9.40208846	     -2.64727799	     32.04283798	     46.20658326	      0.00000000	      0.00000000
     19.75485714	     -5.80238438	     -6.18712418	      3.70910498	      1.05328029	      0.91940579	      0.47307730	      0.91612188	      3.70042415	    -17.12076423	     11.16853461	     11.16853461	     16.04934997	      4.14942062	     -4.59456954	     29.33014526	     -8.87341162	     -0.55543727	     24.98566053	     24.98566053	      4.57389198	    -14.11763036	      5.02573831	     -9.28494273	      5.59124444	      4.19721770	     28.19734295	    -14.23096251	      0.90400705	     87.03751237	     44.23005697	      0.00000000	      0.00000000	     -7.26289551	     -9.47521616	     -1.98186879	     31.62003367	     46.11576762	      0.00000000	      0.00000000
     19.76857143	     -5.71054282	     -6.15683032	      3.67865207	      1.05416691	      0.91975690	      0.47010602	      0.57218402	      3.39983899	    -17.04292829	     11.56127572	     11.56127572	     16.06180038	      4.12810704	     -4.48112283	     29.05300724	     -8.68283492	     -0.43708309	     25.52967692	     25.52967692	      4.99661868	    -14.44991822	      4.88253785	     -9.37599664	      5.53462074	      4.16138756	     28.00859741	    -14.19232731	      0.94372449	     86.66470261	     44.24755051	      0.00000000	      0.00000000	     -6.64423441	     -9.58517086	     -1.88357853	     31.77744355	     46.10971243	      0.00000000	      0.00000000
     19.78228571	     -5.67946716	     -6.09371996	      3.63720735	      1.05493331	      0.92012654	      0.46698204	      0.42981097	      3.00589000	    -17.00823561	     12.20350843	     12.20350843	     16.13454911	      4.03635182	     -4.35862823	     28.82909579	     -8.43133917	     -0.27514414	     26.02688430	     26.02688430	      5.49188704	    -14.81934660	      4.90764007	     -9.39047121	      5.40230282	      4.24182604	     27.74294800	    -14.28320926	      0.90277361	     85.86486589	     44.28393950	      0.00000000	      0.00000000	     -5.87797612	     -9.66226338	     -1.72668431	     31.95796854	     46.09708671	      0.00000000	      0.00000000
     19.79600000	     -5.61934993	     -6.04848168	      3.64379638	      1.05573645	      0.92068482	      0.46370428	      0.17585093	      2.65565512	    -17.00249204	     12.66936922	     12.66936922	     16.05008542	      3.93266545	     -4.28963837	     28.54227092	     -8.18741680	     -0.14089246	     26.44365276	     26.44365276	      5.97893483	    -15.07533524	      4.83030161	     -9.46467061	      5.30016681	      4.15022549	     27.29307455	    -14.21237534	      0.96022826	     85.29346569	     44.30301316	      0.00000000	      0.00000000	     -5.09944637	     -9.74593030	     -1.66126440	     32.21301745	     46.09909808	      0.00000000	      0.00000000
     19.80971429	     -5.68096040	     -5.94782351	      3.52118281	      1.05635219	      0.92110275	      0.46038450	      0.39064005	      2.10447529	    -16.90682810	     13.79572071	     13.79572071	     16.17205408	      3.78925152	     -4.20364709	     28.32961182	     -7.89890952	     -0.12165881	     26.80775828	     26.80775828	      6.62190634	    -15.37783832	      5.32227610	     -9.35328813	      5.12539862	      4.51524799	     26.97503494	    -14.55700720	      0.69998800	     83.42660213	     44.38586638	      0.00000000	      0.00000000	     -4.14805870	     -9.82759742	     -1.40188213	     32.54966617	     46.07415053	      0.00000000	      0.00000000
     19.82342857	     -5.57656959	     -5.99004032	      3.48105888	      1.05721502	      0.92181607	      0.45703862	      0.12608324	      1.83874482	    -16.85215307	     14.30619133	     14.30619133	     16.00871290	      3.70652124	     -4.18272284	     27.91675367	     -7.76507692	     -0.06634631	     27.10226502	     27.10226502	      7.10729114	    -15.55396703	      5.26948159	     -9.46260803	      5.16082269	      4.34086316	     26.37270351	    -14.42001574	      0.79058902	     82.83427953	     44.40264249	      0.00000000	      0.00000000	     -3.40787125	     -9.95519109	     -1.36648856	     32.85603191	     46.08008155	      0.00000000	      0.00000000
